<mxfile host="app.diagrams.net" modified="2022-09-23T04:23:40.058Z" agent="5.0 (Windows NT 10.0; Win64; x64) AppleWebKit/537.36 (KHTML, like Gecko) Chrome/105.0.0.0 Safari/537.36" etag="LflbyPYYTHUn0kjUSveQ" version="20.3.6" type="github">
  <diagram id="C5RBs43oDa-KdzZeNtuy" name="Page-1">
    <mxGraphModel dx="1422" dy="697" grid="1" gridSize="10" guides="1" tooltips="1" connect="1" arrows="1" fold="1" page="1" pageScale="1" pageWidth="827" pageHeight="1169" math="0" shadow="0">
      <root>
        <mxCell id="WIyWlLk6GJQsqaUBKTNV-0" />
        <mxCell id="WIyWlLk6GJQsqaUBKTNV-1" parent="WIyWlLk6GJQsqaUBKTNV-0" />
        <mxCell id="1KCdWiZ9QiFZB8cn-z4l-3" value="Person" style="swimlane;" vertex="1" parent="WIyWlLk6GJQsqaUBKTNV-1">
          <mxGeometry x="300" y="120" width="200" height="210" as="geometry" />
        </mxCell>
        <mxCell id="1KCdWiZ9QiFZB8cn-z4l-5" value="abstract void walk();&amp;nbsp;" style="text;html=1;align=center;verticalAlign=middle;resizable=0;points=[];autosize=1;strokeColor=none;fillColor=none;" vertex="1" parent="1KCdWiZ9QiFZB8cn-z4l-3">
          <mxGeometry y="35" width="130" height="30" as="geometry" />
        </mxCell>
        <mxCell id="1KCdWiZ9QiFZB8cn-z4l-7" value="void breathe();&amp;nbsp;" style="text;html=1;align=center;verticalAlign=middle;resizable=0;points=[];autosize=1;strokeColor=none;fillColor=none;" vertex="1" parent="1KCdWiZ9QiFZB8cn-z4l-3">
          <mxGeometry y="70" width="100" height="30" as="geometry" />
        </mxCell>
        <mxCell id="1KCdWiZ9QiFZB8cn-z4l-9" value="" style="endArrow=classic;html=1;rounded=0;entryX=0.5;entryY=1;entryDx=0;entryDy=0;" edge="1" parent="WIyWlLk6GJQsqaUBKTNV-1" target="1KCdWiZ9QiFZB8cn-z4l-3">
          <mxGeometry width="50" height="50" relative="1" as="geometry">
            <mxPoint x="280" y="440" as="sourcePoint" />
            <mxPoint x="420" y="370" as="targetPoint" />
          </mxGeometry>
        </mxCell>
        <mxCell id="1KCdWiZ9QiFZB8cn-z4l-11" value="" style="endArrow=classic;html=1;rounded=0;entryX=0.5;entryY=1;entryDx=0;entryDy=0;" edge="1" parent="WIyWlLk6GJQsqaUBKTNV-1">
          <mxGeometry width="50" height="50" relative="1" as="geometry">
            <mxPoint x="520" y="440" as="sourcePoint" />
            <mxPoint x="400" y="330" as="targetPoint" />
          </mxGeometry>
        </mxCell>
        <mxCell id="1KCdWiZ9QiFZB8cn-z4l-12" value="Asian" style="swimlane;" vertex="1" parent="WIyWlLk6GJQsqaUBKTNV-1">
          <mxGeometry x="180" y="440" width="200" height="200" as="geometry" />
        </mxCell>
        <mxCell id="1KCdWiZ9QiFZB8cn-z4l-15" value="@Override&lt;br&gt;&amp;nbsp; void walk();" style="text;html=1;align=center;verticalAlign=middle;resizable=0;points=[];autosize=1;strokeColor=none;fillColor=none;" vertex="1" parent="1KCdWiZ9QiFZB8cn-z4l-12">
          <mxGeometry x="5" y="40" width="90" height="40" as="geometry" />
        </mxCell>
        <mxCell id="1KCdWiZ9QiFZB8cn-z4l-13" value="non-Asian" style="swimlane;" vertex="1" parent="WIyWlLk6GJQsqaUBKTNV-1">
          <mxGeometry x="420" y="440" width="200" height="200" as="geometry" />
        </mxCell>
        <mxCell id="1KCdWiZ9QiFZB8cn-z4l-16" value="@Override&lt;br&gt;&amp;nbsp; void walk();" style="text;html=1;align=center;verticalAlign=middle;resizable=0;points=[];autosize=1;strokeColor=none;fillColor=none;" vertex="1" parent="1KCdWiZ9QiFZB8cn-z4l-13">
          <mxGeometry x="20" y="40" width="90" height="40" as="geometry" />
        </mxCell>
      </root>
    </mxGraphModel>
  </diagram>
</mxfile>
